<svg width="60" height="60" viewBox="0 0 60 60" fill="none" xmlns="http://www.w3.org/2000/svg">
<path d="M24.8104 5C13.881 5 5 13.6787 5 24.3596C5 35.04 13.881 43.7187 24.8104 43.7187C29.1351 43.7187 33.1317 42.3579 36.3909 40.0535L51.7224 55L55 51.7971L39.8506 36.9573C42.8276 33.5675 44.6213 29.1682 44.6213 24.3596C44.6213 13.6787 35.7402 5 24.8104 5ZM24.8104 7.27742C34.4793 7.27742 42.2908 14.9109 42.2908 24.3596C42.2908 33.8078 34.4793 41.4413 24.8104 41.4413C15.142 41.4413 7.3305 33.8078 7.3305 24.3596C7.3305 14.9109 15.142 7.27742 24.8104 7.27742Z" fill="black"/>
</svg>
